<?xml version="1.0" encoding="UTF-8" standalone="no"?>
<svg
   xmlns:dc="http://purl.org/dc/elements/1.1/"
   xmlns:cc="http://creativecommons.org/ns#"
   xmlns:rdf="http://www.w3.org/1999/02/22-rdf-syntax-ns#"
   xmlns:svg="http://www.w3.org/2000/svg"
   xmlns="http://www.w3.org/2000/svg"
   xmlns:sodipodi="http://sodipodi.sourceforge.net/DTD/sodipodi-0.dtd"
   xmlns:inkscape="http://www.inkscape.org/namespaces/inkscape"
   width="24"
   height="24"
   viewBox="0 0 24 24"
   version="1.1"
   id="svg8"
   sodipodi:docname="broken_link-orange.svg"
   inkscape:version="0.92.4 (5da689c313, 2019-01-14)">
  <metadata
     id="metadata14">
    <rdf:RDF>
      <cc:Work
         rdf:about="">
        <dc:format>image/svg+xml</dc:format>
        <dc:type
           rdf:resource="http://purl.org/dc/dcmitype/StillImage" />
        <dc:title></dc:title>
      </cc:Work>
    </rdf:RDF>
  </metadata>
  <defs
     id="defs12" />
  <sodipodi:namedview
     pagecolor="#ffffff"
     bordercolor="#666666"
     borderopacity="1"
     objecttolerance="10"
     gridtolerance="10"
     guidetolerance="10"
     inkscape:pageopacity="0"
     inkscape:pageshadow="2"
     inkscape:window-width="1171"
     inkscape:window-height="775"
     id="namedview10"
     showgrid="false"
     inkscape:zoom="9.8333333"
     inkscape:cx="12"
     inkscape:cy="12"
     inkscape:window-x="3909"
     inkscape:window-y="337"
     inkscape:window-maximized="0"
     inkscape:current-layer="svg8" />
  <path
     fill="none"
     d="M0 0h24v24H0V0z"
     id="path2" />
  <path
     d="M17 7h-4v1.9h4c1.71 0 3.1 1.39 3.1 3.1 0 1.43-.98 2.63-2.31 2.98l1.46 1.46C20.88 15.61 22 13.95 22 12c0-2.76-2.24-5-5-5zm-1 4h-2.19l2 2H16zM2 4.27l3.11 3.11C3.29 8.12 2 9.91 2 12c0 2.76 2.24 5 5 5h4v-1.9H7c-1.71 0-3.1-1.39-3.1-3.1 0-1.59 1.21-2.9 2.76-3.07L8.73 11H8v2h2.73L13 15.27V17h1.73l4.01 4L20 19.74 3.27 3 2 4.27z"
     id="path4"
     style="fill:#c84c36;fill-opacity:1" />
  <path
     fill="none"
     d="M0 24V0"
     id="path6" />
</svg>
