<?xml version="1.0" encoding="UTF-8" standalone="no"?>
<svg
   xmlns:dc="http://purl.org/dc/elements/1.1/"
   xmlns:cc="http://creativecommons.org/ns#"
   xmlns:rdf="http://www.w3.org/1999/02/22-rdf-syntax-ns#"
   xmlns:svg="http://www.w3.org/2000/svg"
   xmlns="http://www.w3.org/2000/svg"
   xmlns:sodipodi="http://sodipodi.sourceforge.net/DTD/sodipodi-0.dtd"
   xmlns:inkscape="http://www.inkscape.org/namespaces/inkscape"
   width="24"
   height="24"
   viewBox="0 0 24 24"
   version="1.1"
   id="svg8"
   sodipodi:docname="broken_image.svg"
   inkscape:version="0.92.4 (5da689c313, 2019-01-14)">
  <metadata
     id="metadata14">
    <rdf:RDF>
      <cc:Work
         rdf:about="">
        <dc:format>image/svg+xml</dc:format>
        <dc:type
           rdf:resource="http://purl.org/dc/dcmitype/StillImage" />
        <dc:title></dc:title>
      </cc:Work>
    </rdf:RDF>
  </metadata>
  <defs
     id="defs12" />
  <sodipodi:namedview
     pagecolor="#ffffff"
     bordercolor="#666666"
     borderopacity="1"
     objecttolerance="10"
     gridtolerance="10"
     guidetolerance="10"
     inkscape:pageopacity="0"
     inkscape:pageshadow="2"
     inkscape:window-width="1206"
     inkscape:window-height="746"
     id="namedview10"
     showgrid="false"
     inkscape:zoom="9.8333333"
     inkscape:cx="1.3220339"
     inkscape:cy="12"
     inkscape:window-x="1494"
     inkscape:window-y="1531"
     inkscape:window-maximized="0"
     inkscape:current-layer="svg8" />
  <path
     fill="none"
     d="M0 0h24v24H0zm0 0h24v24H0zm21 19c0 1.1-.9 2-2 2H5c-1.1 0-2-.9-2-2V5c0-1.1.9-2 2-2h14c1.1 0 2 .9 2 2"
     id="path2" />
  <path
     fill="none"
     d="M0 0h24v24H0z"
     id="path4" />
  <path
     d="M21 5v6.59l-3-3.01-4 4.01-4-4-4 4-3-3.01V5c0-1.1.9-2 2-2h14c1.1 0 2 .9 2 2zm-3 6.42l3 3.01V19c0 1.1-.9 2-2 2H5c-1.1 0-2-.9-2-2v-6.58l3 2.99 4-4 4 4 4-3.99z"
     id="path6"
     style="fill:#f9f9f9" />
</svg>
